<svg width="16" height="18" viewBox="0 0 16 18" fill="none" xmlns="http://www.w3.org/2000/svg">
    <path d="M5.46801 15.494V15.039H2.05001C1.50622 15.0382 0.98495 14.8217 0.600615 14.437C0.21628 14.0523 0.000276974 13.5308 1.26756e-05 12.987V12.64C-0.00141972 12.2066 0.118575 11.7815 0.346398 11.4128C0.57422 11.0441 0.900761 10.7466 1.28901 10.554C1.46368 10.4676 1.61324 10.3379 1.72338 10.1771C1.83351 10.0164 1.90053 9.83007 1.91801 9.636L2.32501 5.16C2.45498 3.7514 3.10644 2.44214 4.15164 1.48894C5.19685 0.535729 6.56042 0.00732422 7.97501 0.00732422C9.3896 0.00732422 10.7532 0.535729 11.7984 1.48894C12.8436 2.44214 13.495 3.7514 13.625 5.16L14.032 9.636C14.049 9.82945 14.1153 10.0153 14.2248 10.1757C14.3342 10.3361 14.4831 10.4657 14.657 10.552C15.0461 10.7445 15.3735 11.0421 15.602 11.4112C15.8305 11.7802 15.9511 12.2059 15.95 12.64V12.987C15.9495 13.5306 15.7334 14.0518 15.3491 14.4363C14.9648 14.8208 14.4436 15.0372 13.9 15.038H10.481V15.493C10.4679 16.1491 10.1981 16.7739 9.72944 17.2333C9.26081 17.6926 8.63074 17.9499 7.97451 17.9499C7.31829 17.9499 6.68822 17.6926 6.21959 17.2333C5.75095 16.7739 5.48112 16.1491 5.46801 15.493V15.494ZM6.83501 15.494C6.83501 15.7962 6.95507 16.0861 7.16876 16.2997C7.38246 16.5134 7.6723 16.6335 7.97451 16.6335C8.27673 16.6335 8.56656 16.5134 8.78026 16.2997C8.99396 16.0861 9.11401 15.7962 9.11401 15.494V15.039H6.83601L6.83501 15.494ZM3.68601 5.284L3.27901 9.76C3.24136 10.186 3.09472 10.5951 2.85321 10.948C2.6117 11.3009 2.28344 11.5857 1.90001 11.775C1.73866 11.8546 1.60288 11.9778 1.50812 12.1307C1.41337 12.2837 1.36344 12.4601 1.36401 12.64V12.987C1.36401 13.1682 1.43594 13.3421 1.564 13.4703C1.69206 13.5986 1.86578 13.6707 2.04701 13.671H13.9C14.0813 13.6707 14.2552 13.5986 14.3834 13.4704C14.5116 13.3422 14.5837 13.1683 14.584 12.987V12.64C14.5846 12.4605 14.5349 12.2844 14.4405 12.1317C14.3461 11.979 14.2108 11.8558 14.05 11.776C13.6667 11.5861 13.3386 11.301 13.097 10.9481C12.8554 10.5951 12.7084 10.186 12.67 9.76L12.263 5.284C12.1649 4.2143 11.6706 3.21987 10.8771 2.49582C10.0836 1.77176 9.0482 1.37036 7.97401 1.37036C6.89982 1.37036 5.8644 1.77176 5.07091 2.49582C4.27741 3.21987 3.78312 4.2143 3.68501 5.284H3.68601Z" fill="#141124"/>
</svg>
