<svg xmlns="http://www.w3.org/2000/svg" width="24" height="24" viewBox="0 0 24 24" fill="current">
  <path d="M3 5H5.55263L9 9" stroke="#696E82" stroke-width="1.5" stroke-linecap="round"/>
  <circle cx="9.5" cy="18" r="1.25" fill="#696E82" stroke="#696E82" stroke-width="1.5"/>
  <circle cx="19.5" cy="18" r="1.25" fill="#696E82" stroke="#696E82" stroke-width="1.5"/>
  <path fill-rule="evenodd" clip-rule="evenodd" d="M18.6895 9.83325H10.8105C9.85293 9.83325 9.14053 10.7183 9.34516 11.6538L10.0811 15.018C9.97236 15.0061 9.8619 14.9999 9.75 14.9999C9.33965 14.9999 8.94853 15.0823 8.59231 15.2315L7.87981 11.9743C7.47055 10.1034 8.89534 8.33325 10.8105 8.33325H18.6895C20.6046 8.33325 22.0294 10.1034 21.6202 11.9743L20.9077 15.2314C20.5515 15.0823 20.1603 14.9999 19.75 14.9999C19.6381 14.9999 19.5276 15.006 19.4189 15.018L20.1548 11.6538C20.3595 10.7183 19.6471 9.83325 18.6895 9.83325ZM12.5793 18.9999H16.9207C16.8101 18.6871 16.75 18.3506 16.75 17.9999C16.75 17.8296 16.7642 17.6625 16.7915 17.4999H12.7085C12.7358 17.6625 12.75 17.8296 12.75 17.9999C12.75 18.3506 12.6898 18.6871 12.5793 18.9999Z" />
</svg>