<svg xmlns="http://www.w3.org/2000/svg" width="14" height="14" viewBox="0 0 14 14" fill="none">
  <path fill-rule="evenodd" clip-rule="evenodd" d="M14 7C14.0001 9.61299 12.5449 12.0085 10.2259 13.2127C7.90692 14.4169 5.1103 14.2292 2.973 12.726L0 13V7C0 3.13401 3.13401 0 7 0C10.866 0 14 3.13401 14 7Z" fill="#5776B9"/>
  <path fill-rule="evenodd" clip-rule="evenodd" d="M10 9H6H10ZM10 6H4H10Z" fill="#5776B9"/>
  <path d="M10 8.25C10.4142 8.25 10.75 8.58579 10.75 9C10.75 9.41421 10.4142 9.75 10 9.75V8.25ZM6 9.75C5.58579 9.75 5.25 9.41421 5.25 9C5.25 8.58579 5.58579 8.25 6 8.25V9.75ZM10 5.25C10.4142 5.25 10.75 5.58579 10.75 6C10.75 6.41421 10.4142 6.75 10 6.75V5.25ZM4 6.75C3.58579 6.75 3.25 6.41421 3.25 6C3.25 5.58579 3.58579 5.25 4 5.25V6.75ZM10 9.75H6V8.25H10V9.75ZM10 6.75H4V5.25H10V6.75Z" fill="#F2F4FF"/>
</svg>