<svg xmlns="http://www.w3.org/2000/svg" width="24" height="24" viewBox="0 0 24 24" fill="none">
  <path d="M7.2141 11.8641C7.13997 11.7794 7.04988 11.7102 6.94898 11.6603C6.84808 11.6104 6.73834 11.5809 6.62603 11.5734C6.51371 11.5659 6.40103 11.5806 6.2944 11.6167C6.18778 11.6528 6.08931 11.7095 6.0046 11.7836C5.9199 11.8578 5.85063 11.9478 5.80074 12.0488C5.75086 12.1497 5.72133 12.2594 5.71386 12.3717C5.70638 12.484 5.7211 12.5967 5.75718 12.7033C5.79325 12.81 5.84997 12.9084 5.9241 12.9931L8.9241 16.4221C9.00275 16.5123 9.09941 16.585 9.20786 16.6356C9.31631 16.6861 9.43415 16.7134 9.55378 16.7157C9.67342 16.7179 9.7922 16.6951 9.90248 16.6487C10.0128 16.6023 10.1121 16.5333 10.1941 16.4461L17.4801 8.73213C17.6362 8.5669 17.7202 8.34643 17.7138 8.11923C17.7073 7.89203 17.6108 7.67671 17.4456 7.52063C17.2804 7.36455 17.0599 7.2805 16.8327 7.28697C16.6055 7.29344 16.3902 7.3899 16.2341 7.55513L9.5951 14.5861L7.2141 11.8641Z" fill="#5776B9"/>
</svg>