<svg width="3" height="15" viewBox="0 0 3 15" fill="none" xmlns="http://www.w3.org/2000/svg">
    <path d="M1.5 12C1.79667 12 2.08668 12.088 2.33335 12.2528C2.58003 12.4176 2.77229 12.6519 2.88582 12.926C2.99935 13.2001 3.02905 13.5017 2.97118 13.7926C2.9133 14.0836 2.77044 14.3509 2.56066 14.5607C2.35088 14.7704 2.08361 14.9133 1.79263 14.9712C1.50166 15.0291 1.20006 14.9994 0.925973 14.8858C0.651884 14.7723 0.417616 14.58 0.252794 14.3334C0.0879723 14.0867 -1.31833e-06 13.7967 -1.30536e-06 13.5C-1.28797e-06 13.1022 0.158034 12.7206 0.439339 12.4393C0.720643 12.158 1.10217 12 1.5 12ZM1.5 6C1.79667 6 2.08668 6.08797 2.33335 6.2528C2.58003 6.41762 2.77229 6.65189 2.88582 6.92597C2.99935 7.20006 3.02905 7.50166 2.97118 7.79264C2.9133 8.08361 2.77044 8.35088 2.56066 8.56066C2.35088 8.77044 2.08361 8.9133 1.79263 8.97118C1.50166 9.02906 1.20006 8.99935 0.925974 8.88582C0.651885 8.77229 0.417617 8.58003 0.252795 8.33335C0.0879725 8.08668 -1.05606e-06 7.79667 -1.04309e-06 7.5C-1.0257e-06 7.10218 0.158034 6.72064 0.439339 6.43934C0.720643 6.15804 1.10217 6 1.5 6ZM1.5 -6.55671e-08C1.79667 -5.25992e-08 2.08668 0.0879734 2.33335 0.252796C2.58003 0.417618 2.77229 0.651886 2.88582 0.925975C2.99935 1.20006 3.02906 1.50166 2.97118 1.79264C2.9133 2.08361 2.77044 2.35088 2.56066 2.56066C2.35088 2.77044 2.08361 2.9133 1.79263 2.97118C1.50166 3.02906 1.20006 2.99935 0.925974 2.88582C0.651885 2.77229 0.417617 2.58003 0.252795 2.33336C0.0879728 2.08668 -7.93791e-07 1.79667 -7.80823e-07 1.5C-7.63433e-07 1.10218 0.158035 0.720644 0.439339 0.43934C0.720644 0.158035 1.10217 -8.29566e-08 1.5 -6.55671e-08V-6.55671e-08Z" fill="#141124"/>
</svg>
