<svg xmlns="http://www.w3.org/2000/svg" width="13" height="7" viewBox="0 0 13 7" fill="none">
  <path d="M1.99762 0.72006C1.85545 0.58758 1.6674 0.515457 1.4731 0.518885C1.2788 0.522313 1.09341 0.601025 0.955998 0.738438C0.818585 0.875851 0.739873 1.06124 0.736445 1.25554C0.733017 1.44984 0.80514 1.63789 0.93762 1.78006L5.93762 6.78006C6.00727 6.84976 6.08997 6.90504 6.181 6.94276C6.27202 6.98048 6.36959 6.9999 6.46812 6.9999C6.56665 6.9999 6.66422 6.98048 6.75524 6.94276C6.84627 6.90504 6.92897 6.84976 6.99862 6.78006L11.9986 1.78006C12.1352 1.63854 12.2107 1.44906 12.2089 1.25241C12.2071 1.05576 12.1281 0.867688 11.989 0.728697C11.8499 0.589706 11.6617 0.510918 11.4651 0.509303C11.2684 0.507687 11.079 0.583374 10.9376 0.72006L6.46762 5.18906L1.99762 0.72006Z" fill="#1F1F1F"/>
</svg>