<svg xmlns="http://www.w3.org/2000/svg" width="24" height="24" viewBox="0 0 24 24" fill="none">
  <path d="M16.2508 20.0411H6.75083C6.12119 20.0403 5.51756 19.7898 5.07233 19.3446C4.6271 18.8994 4.37662 18.2957 4.37583 17.6661V9.57708L3.25783 10.3901C3.12295 10.4889 2.96005 10.5422 2.79283 10.5421C2.62547 10.5423 2.46235 10.4894 2.32689 10.3911C2.19143 10.2928 2.09058 10.1542 2.03882 9.99501C1.98707 9.83585 1.98706 9.66439 2.0388 9.50522C2.09054 9.34606 2.19138 9.20738 2.32683 9.10908L10.1008 3.45408C10.5068 3.15896 10.9959 3 11.4978 3C11.9998 3 12.4888 3.15896 12.8948 3.45408L20.6738 9.10908C20.758 9.17015 20.8294 9.24721 20.8837 9.33588C20.9381 9.42454 20.9745 9.52306 20.9907 9.62579C21.007 9.72852 21.0028 9.83345 20.9785 9.93456C20.9541 10.0357 20.9101 10.131 20.8488 10.2151C20.7748 10.3157 20.6783 10.3976 20.567 10.4542C20.4557 10.5108 20.3327 10.5405 20.2078 10.5411C20.0406 10.5414 19.8776 10.4881 19.7428 10.3891L18.6248 9.57608V17.6641C18.6246 18.2939 18.3745 18.8979 17.9294 19.3435C17.4843 19.7892 16.8806 20.04 16.2508 20.0411ZM10.7088 11.3331H12.2918C12.9214 11.3336 13.525 11.5839 13.9703 12.0289C14.4155 12.474 14.666 13.0775 14.6668 13.7071V18.4571H16.2508C16.4608 18.4568 16.6621 18.3733 16.8106 18.2248C16.959 18.0763 17.0426 17.8751 17.0428 17.6651V8.42608L11.9668 4.73308C11.8314 4.6347 11.6682 4.58172 11.5008 4.58172C11.3334 4.58172 11.1703 4.6347 11.0348 4.73308L5.95883 8.42608V17.6651C5.9591 17.8751 6.04262 18.0763 6.19109 18.2248C6.33957 18.3733 6.54086 18.4568 6.75083 18.4571H8.33383V13.7071C8.33463 13.0775 8.58513 12.474 9.03039 12.0289C9.47565 11.5839 10.0793 11.3336 10.7088 11.3331ZM10.7088 12.9161C10.499 12.9161 10.2977 12.9994 10.1492 13.1477C10.0007 13.296 9.9171 13.4972 9.91683 13.7071V18.4571H13.0838V13.7071C13.0836 13.4972 13 13.296 12.8515 13.1477C12.703 12.9994 12.5017 12.9161 12.2918 12.9161H10.7088Z" fill="white"/>
</svg>