<svg width="18" height="18" viewBox="0 0 18 18" fill="none" xmlns="http://www.w3.org/2000/svg">
    <path fill-rule="evenodd" clip-rule="evenodd" d="M12.4286 4.9999C12.4286 5.31549 12.6844 5.57132 13 5.57132C13.3156 5.57132 13.5714 5.31549 13.5714 4.9999C13.5714 4.6843 13.3156 4.42847 13 4.42847C12.6844 4.42847 12.4286 4.6843 12.4286 4.9999Z" stroke="black" stroke-width="1.5" stroke-linecap="round" stroke-linejoin="round"/>
    <path d="M16.25 7.85714C16.25 8.27136 16.5858 8.60714 17 8.60714C17.4142 8.60714 17.75 8.27136 17.75 7.85714H16.25ZM1 12.4286L1.75 12.4296V12.4286H1ZM1.30565 15.6091C1.55371 15.9409 2.02371 16.0087 2.35544 15.7606C2.68716 15.5126 2.75499 15.0426 2.50693 14.7109L1.30565 15.6091ZM17.75 7.85714C17.75 7.44293 17.4142 7.10714 17 7.10714C16.5857 7.10714 16.25 7.44293 16.25 7.85714H17.75ZM5.57139 17V16.25L5.57091 16.25L5.57139 17ZM2.50799 14.7123C2.26074 14.38 1.79091 14.311 1.45857 14.5583C1.12624 14.8055 1.05726 15.2753 1.30451 15.6077L2.50799 14.7123ZM17.5037 8.41279C17.8106 8.13458 17.8338 7.66027 17.5556 7.3534C17.2774 7.04652 16.8031 7.02329 16.4962 7.3015L17.5037 8.41279ZM11.6285 12.7269L11.1248 12.1712L11.1197 12.1759L11.6285 12.7269ZM10.7593 13.0262L10.6977 13.7737H10.6977L10.7593 13.0262ZM9.95082 12.5886L10.543 12.1283L10.5427 12.1279L9.95082 12.5886ZM7.65482 9.63886L8.24666 9.17818L8.24554 9.17675L7.65482 9.63886ZM6.7311 9.20041L6.71563 8.45057L6.7311 9.20041ZM5.82625 9.67657L5.21697 9.23921L5.21612 9.2404L5.82625 9.67657ZM1.29612 14.7238C1.05523 15.0608 1.13311 15.5292 1.47008 15.7701C1.80704 16.011 2.27548 15.9331 2.51637 15.5962L1.29612 14.7238ZM17.75 7.85714V5.57143H16.25V7.85714H17.75ZM17.75 5.57143C17.75 2.63248 15.3675 0.25 12.4286 0.25V1.75C14.5391 1.75 16.25 3.46091 16.25 5.57143H17.75ZM12.4286 0.25H5.57143V1.75H12.4286V0.25ZM5.57143 0.25C2.63249 0.25 0.250004 2.63248 0.250004 5.57143H1.75C1.75 3.46091 3.46092 1.75 5.57143 1.75V0.25ZM0.250004 5.57143V12.4286H1.75V5.57143H0.250004ZM0.250005 12.4276C0.248468 13.5744 0.618878 14.6907 1.30565 15.6091L2.50693 14.7109C2.0145 14.0523 1.7489 13.2519 1.75 12.4296L0.250005 12.4276ZM16.25 7.85714V12.4286H17.75V7.85714H16.25ZM16.25 12.4286C16.25 14.5391 14.539 16.25 12.4285 16.25V17.75C15.3675 17.75 17.75 15.3675 17.75 12.4286H16.25ZM12.4285 16.25H5.57139V17.75H12.4285V16.25ZM5.57091 16.25C4.36419 16.2508 3.22827 15.6805 2.50799 14.7123L1.30451 15.6077C2.30803 16.9566 3.89063 17.7511 5.57187 17.75L5.57091 16.25ZM16.4962 7.3015L11.1248 12.1712L12.1323 13.2825L17.5037 8.41279L16.4962 7.3015ZM11.1197 12.1759C11.0389 12.2505 10.9305 12.2878 10.8209 12.2788L10.6977 13.7737C11.2258 13.8172 11.748 13.6374 12.1374 13.2779L11.1197 12.1759ZM10.8209 12.2788C10.7113 12.2697 10.6105 12.2152 10.543 12.1283L9.35864 13.0488C9.68384 13.4672 10.1695 13.7302 10.6977 13.7737L10.8209 12.2788ZM10.5427 12.1279L8.24666 9.17818L7.06298 10.0995L9.35898 13.0492L10.5427 12.1279ZM8.24554 9.17675C7.87833 8.70733 7.31149 8.43828 6.71563 8.45057L6.74656 9.95025C6.87023 9.9477 6.98788 10.0035 7.06409 10.101L8.24554 9.17675ZM6.71563 8.45057C6.11978 8.46286 5.56451 8.75506 5.21697 9.23921L6.43552 10.1139C6.50765 10.0134 6.6229 9.9528 6.74656 9.95025L6.71563 8.45057ZM5.21612 9.2404L1.29612 14.7238L2.51637 15.5962L6.43637 10.1127L5.21612 9.2404Z" fill="#1F1F1F"/>
</svg>
