<svg xmlns="http://www.w3.org/2000/svg" width="155" height="163" viewBox="0 0 155 163" fill="none">
    <g clip-path="url(#clip0_4_3228)">
        <path d="M32.3766 46.9114H39.9325V62.8113H54.2751V46.9114H61.8309V91.7848H32.3574V46.9114H32.3766ZM54.2943 85.4595V69.1558H39.9517V85.4595H54.2943ZM67.6371 42.1433H75.1929V59.8889H81.8644V66.6757H75.1929V91.8233H67.6371V42.1433ZM39.9325 26.6279H32.3766V46.9306H39.9325V26.6279ZM61.8501 42.1433H54.2943V46.9306H61.8501V42.1433Z" fill="#5776B9"/>
        <path d="M84.3638 53.1983H105.993V48.9109H84.3638V43.0085H113.568V58.9084H91.9388V63.465H117.125V69.3674H84.3638V53.1791V53.1983ZM86.8631 73.0011H128.026V91.9195H86.8631V73.0011ZM120.451 85.9017V78.9996H94.419V85.9017H120.451ZM120.451 42.4702H128.007V52.4293H134.678V59.2161H128.007V71.0593H120.451V42.4702ZM154.981 59.2161V52.3908H134.678V59.2161H154.981Z" fill="#3E3A39"/>
        <path d="M32.9341 136.755C35.0874 136.159 37.0869 135.063 38.9326 133.467C40.7783 131.871 42.3933 129.776 43.7391 127.18C45.085 124.584 46.1424 121.489 46.9114 117.894C47.6805 114.299 48.0458 110.184 48.0458 105.551H33.2033V99.0908H55.4478V104.205C55.4478 109.992 54.9287 115.125 53.8712 119.643C52.8138 124.142 51.3142 128.045 49.3724 131.314C47.4305 134.601 45.0657 137.254 42.278 139.292C39.4902 141.33 36.3756 142.753 32.9341 143.58V136.735V136.755ZM59.293 99.3792H66.4066V116.836H71.9629V99.0908H79.0765V148.752H71.9629V123.604H66.4066V147.636H59.293V99.36V99.3792ZM33.2033 105.551V99.11H12.9006V105.551H33.2033Z" fill="#3E3A39"/>
        <path d="M86.8823 99.1101H94.4381V115.01H109.011V99.1101H116.567V143.984H86.863V99.1101H86.8823ZM109.011 137.658V121.355H94.4381V137.658H109.011ZM123.258 99.1101H130.814V148.771H123.258V99.1101ZM130.814 148.771H123.258V154.173H130.814V148.771Z" fill="#3E3A39"/>
        <path d="M54.3711 4.92186H48.1418V0.153808H54.1019V1.01898H49.0647V4.05669H54.3518V4.92186H54.3711ZM57.5049 8.95932H49.7761V10.4589H57.6972V11.3241H48.8532V8.09415H56.5821V6.78678H48.8532V5.92161H57.5049V8.97854V8.95932ZM57.5049 5.22947H56.5821V0H57.5049V5.22947Z" fill="#231815"/>
        <path d="M75.4043 10.9011H69.1943V4.78727H73.9047V1.01898H69.2328V0.153808H74.8275V5.65244H70.1172V10.036H75.4043V10.9011ZM78.4997 11.0357H77.5769V0H78.4997V11.0357Z" fill="#231815"/>
        <path d="M90.2853 10.9011V0.076904H91.2082V4.49888H95.1111V0.076904H96.0339V4.76805H98.7063V0H99.6292V11.0357H98.7063V5.63322H96.0339V10.9011H90.2661H90.2853ZM91.2082 10.036H95.1111V5.38328H91.2082V10.036Z" fill="#231815"/>
        <path d="M117.663 10.9011H111.453V4.78727H116.163V1.01898H111.492V0.153808H117.086V5.65244H112.376V10.036H117.663V10.9011ZM120.759 11.0357H119.836V0H120.759V11.0357Z" fill="#231815"/>
        <path d="M29.858 85.9019H10.459V91.4582H29.858V85.9019Z" fill="#5776B9"/>
        <path d="M29.8771 78.4614H20.168V84.0177H29.8771V78.4614Z" fill="#5776B9"/>
        <path d="M10.6512 99.1101H0V105.551H10.6512V99.1101Z" fill="#3E3A39"/>
        <path d="M131.121 33.5493H120.47V39.99H131.121V33.5493Z" fill="#3E3A39"/>
        <path d="M133.909 156.384H123.258V162.825H133.909V156.384Z" fill="#3E3A39"/>
        <path d="M141.773 72.9819H131.121V81.2299H141.773V72.9819Z" fill="#3E3A39"/>
    </g>
    <defs>
        <clipPath id="clip0_4_3228">
            <rect width="155" height="162.825" fill="white"/>
        </clipPath>
    </defs>
</svg>
