<svg width="157" height="165" viewBox="0 0 157 165" fill="none" xmlns="http://www.w3.org/2000/svg">
<g clip-path="url(#clip0_78_124)">
<path d="M32.9105 47.8891H40.5444V63.9532H55.0352V47.8891H62.669V93.2261H32.8911V47.8891H32.9105ZM55.0546 86.8354V70.3633H40.5638V86.8354H55.0546ZM68.5353 43.0718H76.1691V61.0007H82.9095V67.8576H76.1691V93.2649H68.5353V43.0718ZM40.5444 27.3961H32.9105V47.9085H40.5444V27.3961ZM62.6884 43.0718H55.0546V47.9085H62.6884V43.0718Z" fill="#5776B9"/>
<path d="M85.4346 54.2409H107.287V49.9092H85.4346V43.9459H114.941V60.01H93.0879V64.6136H118.534V70.577H85.4346V54.2215V54.2409ZM87.9598 74.2482H129.548V93.362H87.9598V74.2482ZM121.895 87.2821V80.3087H95.5936V87.2821H121.895ZM121.895 43.402H129.528V53.4639H136.269V60.3208H129.528V72.2864H121.895V43.402ZM156.781 60.3208V53.4251H136.269V60.3208H156.781Z" fill="#3E3A39"/>
<path d="M33.4738 138.66C35.6494 138.058 37.6695 136.951 39.5343 135.339C41.3991 133.726 43.0307 131.609 44.3905 128.987C45.7502 126.364 46.8185 123.237 47.5955 119.605C48.3725 115.972 48.7416 111.815 48.7416 107.134H33.7458V100.607H56.22V105.774C56.22 111.621 55.6956 116.808 54.6272 121.372C53.5589 125.918 52.0438 129.861 50.0819 133.163C48.12 136.485 45.7308 139.165 42.9142 141.224C40.0976 143.283 36.9508 144.721 33.4738 145.556V138.641V138.66ZM60.105 100.899H67.2921V118.536H72.9058V100.607H80.0929V150.781H72.9058V125.374H67.2921V149.655H60.105V100.879V100.899ZM33.7458 107.134V100.627H13.2334V107.134H33.7458Z" fill="#3E3A39"/>
<path d="M87.9793 100.627H95.6131V116.691H110.337V100.627H117.971V145.964H87.9598V100.627H87.9793ZM110.337 139.573V123.101H95.6131V139.573H110.337ZM124.731 100.627H132.364V150.801H124.731V100.627ZM132.364 150.801H124.731V156.259H132.364V150.801Z" fill="#3E3A39"/>
<path d="M55.1322 5.46574H48.8386V0.648439H54.8602V1.52255H49.771V4.59163H55.1128V5.46574H55.1322ZM58.2984 9.5449H50.4897V11.06H58.4926V11.9341H49.5573V8.6708H57.366V7.34993H49.5573V6.47582H58.2984V9.56433V9.5449ZM58.2984 5.77653H57.366V0.493042H58.2984V5.77653Z" fill="#231815"/>
<path d="M76.3827 11.5068H70.1085V5.32977H74.8675V1.52255H70.1474V0.648439H75.7999V6.20387H71.0409V10.6327H76.3827V11.5068ZM79.51 11.6428H78.5776V0.493042H79.51V11.6428Z" fill="#231815"/>
<path d="M91.4174 11.5068V0.57074H92.3498V5.0384H96.2929V0.57074H97.2253V5.31034H99.9253V0.493042H100.858V11.6428H99.9253V6.18445H97.2253V11.5068H91.3979H91.4174ZM92.3498 10.6327H96.2929V5.93193H92.3498V10.6327Z" fill="#231815"/>
<path d="M119.078 11.5068H112.804V5.32977H117.563V1.52255H112.843V0.648439H118.495V6.20387H113.736V10.6327H119.078V11.5068ZM122.205 11.6428H121.273V0.493042H122.205V11.6428Z" fill="#231815"/>
<path d="M30.3659 87.2822H10.7665V92.8959H30.3659V87.2822Z" fill="#5776B9"/>
<path d="M30.3854 79.7648H20.5759V85.3785H30.3854V79.7648Z" fill="#5776B9"/>
<path d="M10.9607 100.627H0.199463V107.134H10.9607V100.627Z" fill="#3E3A39"/>
<path d="M132.675 34.389H121.914V40.8962H132.675V34.389Z" fill="#3E3A39"/>
<path d="M135.492 158.493H124.731V165H135.492V158.493Z" fill="#3E3A39"/>
<path d="M143.436 74.2288H132.675V82.562H143.436V74.2288Z" fill="#3E3A39"/>
</g>
<defs>
<clipPath id="clip0_78_124">
<rect width="156.601" height="164.507" fill="white" transform="translate(0.199463 0.493042)"/>
</clipPath>
</defs>
</svg>
