<svg xmlns="http://www.w3.org/2000/svg" width="13" height="11" viewBox="0 0 13 11" fill="none">
  <path d="M6.5 11C5.80726 11.0007 5.12131 10.8614 4.48212 10.5902C3.84294 10.319 3.26329 9.92132 2.77697 9.4204C1.7822 8.40573 1.21412 7.03862 1.19242 5.60707L0.928812 5.88207C0.827921 5.98575 0.690625 6.04453 0.547083 6.04549C0.403541 6.04645 0.265492 5.98952 0.163261 5.8872C0.112566 5.83791 0.0720285 5.77888 0.0440073 5.71354C0.0159862 5.6482 0.00104063 5.57786 4.01915e-05 5.5066C-0.00170753 5.36055 0.0536062 5.21974 0.153873 5.115L1.34625 3.87787C1.39674 3.82563 1.45698 3.78413 1.52345 3.75581C1.58992 3.72748 1.66128 3.71289 1.73336 3.71289C1.80545 3.71289 1.87681 3.72748 1.94327 3.75581C2.00974 3.78413 2.06998 3.82563 2.12047 3.87787L3.31213 5.115C3.3623 5.16739 3.40173 5.22937 3.42814 5.29734C3.45454 5.36532 3.4674 5.43794 3.46596 5.511C3.46481 5.58202 3.44979 5.6521 3.42177 5.71718C3.39376 5.78226 3.3533 5.84104 3.30274 5.89013C3.20051 5.99245 3.06246 6.04938 2.91892 6.04842C2.77538 6.04746 2.63808 5.98868 2.53719 5.885L2.27575 5.61513C2.2967 6.74565 2.74861 7.82387 3.53644 8.62299C4.32426 9.42212 5.3866 9.87988 6.5 9.9C7.09701 9.89781 7.68663 9.76578 8.22917 9.51279C8.77171 9.2598 9.25457 8.89172 9.64526 8.43333C9.69654 8.37463 9.75947 8.32762 9.82993 8.29539C9.90038 8.26316 9.97676 8.24644 10.054 8.24633C10.185 8.24635 10.3114 8.29514 10.4094 8.38347C10.517 8.47966 10.5827 8.61519 10.5922 8.76044C10.6016 8.90569 10.5541 9.04884 10.4599 9.1586C9.96691 9.73396 9.35863 10.1958 8.67574 10.5134C7.99286 10.8309 7.25108 10.9968 6.5 11ZM11.2666 7.28713C11.1947 7.28675 11.1236 7.27198 11.0573 7.24367C10.991 7.21536 10.9308 7.17406 10.8802 7.12213L9.68787 5.885C9.63759 5.83239 9.5981 5.77016 9.57169 5.70193C9.54529 5.6337 9.53249 5.56083 9.53404 5.48753C9.5352 5.41663 9.55023 5.34666 9.57825 5.2817C9.60627 5.21674 9.64672 5.15809 9.69726 5.10913C9.79949 5.00681 9.93754 4.94988 10.0811 4.95085C10.2246 4.95181 10.3619 5.01059 10.4628 5.11427L10.7242 5.3834C10.7029 4.25314 10.2509 3.17529 9.46307 2.37648C8.67528 1.57766 7.61316 1.1201 6.5 1.1C5.90328 1.10183 5.31386 1.23333 4.77135 1.48568C4.22884 1.73802 3.74582 2.10536 3.35474 2.563C3.30349 2.62174 3.24056 2.66877 3.1701 2.70101C3.09964 2.73324 3.02325 2.74994 2.94597 2.75C2.81463 2.75003 2.68788 2.70095 2.58991 2.61214C2.5361 2.56446 2.49209 2.50645 2.46041 2.44146C2.42874 2.37647 2.41001 2.30576 2.40531 2.2334C2.40062 2.16104 2.41004 2.08845 2.43304 2.01979C2.45604 1.95114 2.49217 1.88777 2.53936 1.83334C3.03318 1.25936 3.6419 0.79893 4.32488 0.482787C5.00786 0.166643 5.7494 0.00205333 6.5 3.16036e-06C7.19269 -0.000764812 7.87861 0.138439 8.51779 0.409504C9.15697 0.680569 9.73664 1.07808 10.223 1.57887C11.2178 2.59354 11.7859 3.96065 11.8076 5.3922L12.0712 5.1172C12.1721 5.01352 12.3094 4.95474 12.4529 4.95378C12.5965 4.95282 12.7345 5.00975 12.8367 5.11207C12.8875 5.1613 12.9281 5.22032 12.9561 5.28567C12.9841 5.35102 12.999 5.42139 13 5.49267C13.0017 5.63894 12.9464 5.77999 12.8461 5.885L11.6537 7.12287C11.6031 7.17485 11.5428 7.21618 11.4764 7.24449C11.4099 7.2728 11.3387 7.28754 11.2666 7.28787V7.28713Z" fill="black"/>
</svg>