<svg xmlns="http://www.w3.org/2000/svg" width="7" height="12" viewBox="0 0 7 12" fill="none">
  <path d="M0.210783 10.2113C0.0783029 10.3535 0.00617971 10.5415 0.00960793 10.7358C0.0130361 10.9301 0.0917481 11.1155 0.229161 11.2529C0.366574 11.3903 0.551959 11.469 0.74626 11.4725C0.940562 11.4759 1.12861 11.4038 1.27078 11.2713L6.27078 6.27129C6.34048 6.20164 6.39577 6.11894 6.43349 6.02792C6.47121 5.93689 6.49062 5.83932 6.49062 5.74079C6.49062 5.64226 6.47121 5.54469 6.43349 5.45367C6.39577 5.36264 6.34048 5.27994 6.27078 5.21029L1.27078 0.210292C1.12927 0.0737383 0.939779 -0.00176942 0.743132 3.14899e-05C0.546484 0.0018324 0.358411 0.0807978 0.21942 0.21992C0.0804289 0.359042 0.00164082 0.54719 2.53392e-05 0.743839C-0.00159014 0.940488 0.0740962 1.1299 0.210783 1.27129L4.68078 5.74129L0.210783 10.2113Z" fill="#696E82"/>
</svg>