<svg width="20" height="21" viewBox="0 0 20 21" fill="none" xmlns="http://www.w3.org/2000/svg">
    <path d="M18.6205 11.1486C18.9778 11.3582 19.4373 11.2385 19.647 10.8812C19.8566 10.5239 19.7369 10.0644 19.3796 9.85479L18.6205 11.1486ZM2.85295 1.02795L2.46588 1.67041L2.47341 1.67484L2.85295 1.02795ZM1.54189 1.05785L1.12597 0.433748L1.12597 0.433748L1.54189 1.05785ZM1.00965 2.25639L0.267756 2.36633C0.275092 2.41584 0.287364 2.46448 0.304389 2.51154L1.00965 2.25639ZM3.28736 10.7568C3.42827 11.1463 3.85826 11.3479 4.24777 11.2069C4.63728 11.066 4.8388 10.636 4.69789 10.2465L3.28736 10.7568ZM19.3796 11.1486C19.7368 10.939 19.8565 10.4794 19.6469 10.1221C19.4373 9.76489 18.9778 9.64519 18.6205 9.8548L19.3796 11.1486ZM2.85292 19.9754L2.47336 19.3285L2.46588 19.333L2.85292 19.9754ZM1.54186 19.9455L1.12594 20.5696H1.12594L1.54186 19.9455ZM1.00963 18.747L0.304363 18.4918C0.287338 18.5389 0.275066 18.5875 0.26773 18.637L1.00963 18.747ZM4.69786 10.7568C4.83878 10.3673 4.63725 9.93733 4.24775 9.79642C3.85824 9.6555 3.42825 9.85702 3.28733 10.2465L4.69786 10.7568ZM19.0001 11.2517C19.4143 11.2517 19.7501 10.9159 19.7501 10.5017C19.7501 10.0875 19.4143 9.75168 19.0001 9.75168V11.2517ZM3.99264 9.75168C3.57843 9.75168 3.24264 10.0875 3.24264 10.5017C3.24264 10.9159 3.57843 11.2517 3.99264 11.2517V9.75168ZM19.3796 9.85479L3.23248 0.381074L2.47341 1.67484L18.6205 11.1486L19.3796 9.85479ZM3.23999 0.385538C2.58536 -0.00885862 1.76193 0.00991976 1.12597 0.433748L1.95781 1.68196C2.11066 1.58009 2.30857 1.57558 2.4659 1.67037L3.23999 0.385538ZM1.12597 0.433748C0.490001 0.857576 0.15572 1.61034 0.267756 2.36633L1.75155 2.14644C1.72462 1.96474 1.80497 1.78382 1.95781 1.68196L1.12597 0.433748ZM0.304389 2.51154L3.28736 10.7568L4.69789 10.2465L1.71492 2.00124L0.304389 2.51154ZM18.6205 9.8548L2.47339 19.3285L3.23245 20.6223L19.3796 11.1486L18.6205 9.8548ZM2.46588 19.333C2.30854 19.4278 2.11064 19.4233 1.95779 19.3214L1.12594 20.5696C1.7619 20.9934 2.58534 21.0122 3.23996 20.6178L2.46588 19.333ZM1.95779 19.3214C1.80494 19.2195 1.7246 19.0386 1.75153 18.8569L0.26773 18.637C0.155694 19.393 0.489976 20.1458 1.12594 20.5696L1.95779 19.3214ZM1.71489 19.0021L4.69786 10.7568L3.28733 10.2465L0.304363 18.4918L1.71489 19.0021ZM19.0001 9.75168H3.99264V11.2517H19.0001V9.75168Z" fill="#1F1F1F"/>
</svg>
