<svg xmlns="http://www.w3.org/2000/svg" width="41" height="36" viewBox="0 0 41 36" fill="none">
    <g clip-path="url(#clip0_4_3246)">
        <path d="M18.1674 29.7853C13.5025 29.7853 8.03149 26.1281 11.3271 18.132C15.0792 9.03932 26.7444 3.12375 31.5278 3.12375C32.7251 3.12375 33.4305 3.55053 33.389 4.40408C33.3297 5.65476 32.3221 7.24924 33.5491 8.25098C35.0902 9.50166 39.6069 7.47448 40.0455 4.2796C40.33 2.16351 37.4434 0 31.6226 0C18.2267 0 4.99665 7.81827 1.05491 18.298C-2.46598 27.6514 3.08802 35.6416 13.7337 35.6416C23.3361 35.6416 29.7792 29.7912 32.0198 22.6605L32.571 20.8705H20.6095C20.0286 23.2296 20.7221 25.9977 24.3853 25.9977C25.3988 25.9977 26.3947 25.7487 27.266 25.2627C27.3549 25.2093 27.3905 25.2805 27.3371 25.3338C25.6478 27.4914 22.2692 29.7794 18.1615 29.7794L18.1674 29.7853Z" fill="#5776B9"/>
        <path d="M40.8459 20.1118C41.5631 15.9152 39.8205 12.8566 35.9499 12.4417C34.3317 12.2698 32.7076 12.1453 30.5441 12.3113C27.1358 12.578 26.0096 14.1725 24.3677 20.1118H40.84H40.8459Z" fill="#5776B9"/>
        <path d="M37.5859 12.4593C37.7934 11.8725 37.6156 11.3924 37.0702 11.2442C36.845 11.179 36.6138 11.1257 36.2997 11.096C35.8077 11.0545 35.6062 11.2501 35.2268 12.0622L37.5859 12.4593Z" fill="#5776B9"/>
    </g>
    <defs>
        <clipPath id="clip0_4_3246">
            <rect width="41" height="35.6475" fill="white"/>
        </clipPath>
    </defs>
</svg>
